<?xml version="1.0" encoding="UTF-8" standalone="no"?>
<!DOCTYPE svg PUBLIC "-//W3C//DTD SVG 1.1//EN"
 "http://www.w3.org/Graphics/SVG/1.1/DTD/svg11.dtd">
<!-- Generated by graphviz version 8.0.5 (20230430.1635)
 -->
<!-- Pages: 1 -->
<svg width="770pt" height="260pt"
 viewBox="0.00 0.00 770.17 260.00" xmlns="http://www.w3.org/2000/svg" xmlns:xlink="http://www.w3.org/1999/xlink">
<g id="graph0" class="graph" transform="scale(1 1) rotate(0) translate(4 256)">
<polygon fill="white" stroke="none" points="-4,4 -4,-256 766.17,-256 766.17,4 -4,4"/>
<!-- 1&#45;setup&#45;network -->
<g id="node1" class="node">
<title>1&#45;setup&#45;network</title>
<ellipse fill="none" stroke="black" cx="71.31" cy="-234" rx="71.31" ry="18"/>
<text text-anchor="middle" x="71.31" y="-228.95" font-family="Times,serif" font-size="14.00">1&#45;setup&#45;network</text>
</g>
<!-- 2&#45;setup&#45;cloudflare -->
<g id="node2" class="node">
<title>2&#45;setup&#45;cloudflare</title>
<ellipse fill="none" stroke="black" cx="218.31" cy="-18" rx="78.48" ry="18"/>
<text text-anchor="middle" x="218.31" y="-12.95" font-family="Times,serif" font-size="14.00">2&#45;setup&#45;cloudflare</text>
</g>
<!-- 3&#45;setup&#45;kubernetes/1&#45;cluster -->
<g id="node3" class="node">
<title>3&#45;setup&#45;kubernetes/1&#45;cluster</title>
<ellipse fill="none" stroke="black" cx="290.31" cy="-90" rx="115.84" ry="18"/>
<text text-anchor="middle" x="290.31" y="-84.95" font-family="Times,serif" font-size="14.00">3&#45;setup&#45;kubernetes/1&#45;cluster</text>
</g>
<!-- 3&#45;setup&#45;kubernetes/1&#45;cluster&#45;&gt;2&#45;setup&#45;cloudflare -->
<g id="edge1" class="edge">
<title>3&#45;setup&#45;kubernetes/1&#45;cluster&#45;&gt;2&#45;setup&#45;cloudflare</title>
<path fill="none" stroke="black" d="M272.88,-72.05C264.1,-63.52 253.3,-53.01 243.62,-43.61"/>
<polygon fill="black" stroke="black" points="246.44,-41.49 236.83,-37.03 241.56,-46.51 246.44,-41.49"/>
</g>
<!-- 3&#45;setup&#45;kubernetes/2&#45;external&#45;secrets -->
<g id="node4" class="node">
<title>3&#45;setup&#45;kubernetes/2&#45;external&#45;secrets</title>
<ellipse fill="none" stroke="black" cx="361.31" cy="-162" rx="149.11" ry="18"/>
<text text-anchor="middle" x="361.31" y="-156.95" font-family="Times,serif" font-size="14.00">3&#45;setup&#45;kubernetes/2&#45;external&#45;secrets</text>
</g>
<!-- 3&#45;setup&#45;kubernetes/2&#45;external&#45;secrets&#45;&gt;3&#45;setup&#45;kubernetes/1&#45;cluster -->
<g id="edge2" class="edge">
<title>3&#45;setup&#45;kubernetes/2&#45;external&#45;secrets&#45;&gt;3&#45;setup&#45;kubernetes/1&#45;cluster</title>
<path fill="none" stroke="black" d="M343.76,-143.7C335.16,-135.22 324.66,-124.86 315.25,-115.58"/>
<polygon fill="black" stroke="black" points="318.24,-113.63 308.66,-109.1 313.32,-118.62 318.24,-113.63"/>
</g>
<!-- 4&#45;setup&#45;instances/1&#45;ssh&#45;keys -->
<g id="node5" class="node">
<title>4&#45;setup&#45;instances/1&#45;ssh&#45;keys</title>
<ellipse fill="none" stroke="black" cx="645.31" cy="-162" rx="116.86" ry="18"/>
<text text-anchor="middle" x="645.31" y="-156.95" font-family="Times,serif" font-size="14.00">4&#45;setup&#45;instances/1&#45;ssh&#45;keys</text>
</g>
<!-- 4&#45;setup&#45;instances/2&#45;rancher -->
<g id="node6" class="node">
<title>4&#45;setup&#45;instances/2&#45;rancher</title>
<ellipse fill="none" stroke="black" cx="273.31" cy="-234" rx="112.77" ry="18"/>
<text text-anchor="middle" x="273.31" y="-228.95" font-family="Times,serif" font-size="14.00">4&#45;setup&#45;instances/2&#45;rancher</text>
</g>
<!-- 4&#45;setup&#45;instances/2&#45;rancher&#45;&gt;2&#45;setup&#45;cloudflare -->
<g id="edge4" class="edge">
<title>4&#45;setup&#45;instances/2&#45;rancher&#45;&gt;2&#45;setup&#45;cloudflare</title>
<path fill="none" stroke="black" d="M238.99,-216.52C223.3,-207.55 205.54,-195.18 193.31,-180 171.77,-153.27 171.64,-141.75 165.31,-108 162.36,-92.27 159.19,-86.78 165.31,-72 169.88,-60.98 177.97,-51.05 186.48,-42.85"/>
<polygon fill="black" stroke="black" points="188.54,-45.81 193.67,-36.54 183.88,-40.59 188.54,-45.81"/>
</g>
<!-- 4&#45;setup&#45;instances/2&#45;rancher&#45;&gt;3&#45;setup&#45;kubernetes/1&#45;cluster -->
<g id="edge5" class="edge">
<title>4&#45;setup&#45;instances/2&#45;rancher&#45;&gt;3&#45;setup&#45;kubernetes/1&#45;cluster</title>
<path fill="none" stroke="black" d="M239.73,-216.53C225.78,-207.77 211.05,-195.56 203.31,-180 196.19,-165.67 195.48,-157.95 203.31,-144 210.91,-130.47 223.53,-119.99 236.82,-112.05"/>
<polygon fill="black" stroke="black" points="238,-114.85 245.08,-106.96 234.63,-108.71 238,-114.85"/>
</g>
<!-- 4&#45;setup&#45;instances/2&#45;rancher&#45;&gt;3&#45;setup&#45;kubernetes/2&#45;external&#45;secrets -->
<g id="edge6" class="edge">
<title>4&#45;setup&#45;instances/2&#45;rancher&#45;&gt;3&#45;setup&#45;kubernetes/2&#45;external&#45;secrets</title>
<path fill="none" stroke="black" d="M294.61,-216.05C305.58,-207.33 319.15,-196.54 331.17,-186.98"/>
<polygon fill="black" stroke="black" points="332.95,-189.24 338.59,-180.28 328.59,-183.76 332.95,-189.24"/>
</g>
<!-- 4&#45;setup&#45;instances/2&#45;rancher&#45;&gt;4&#45;setup&#45;instances/1&#45;ssh&#45;keys -->
<g id="edge3" class="edge">
<title>4&#45;setup&#45;instances/2&#45;rancher&#45;&gt;4&#45;setup&#45;instances/1&#45;ssh&#45;keys</title>
<path fill="none" stroke="black" d="M344.16,-219.67C406.36,-207.96 496.89,-190.93 562.44,-178.59"/>
<polygon fill="black" stroke="black" points="562.96,-181.87 572.14,-176.58 561.67,-174.99 562.96,-181.87"/>
</g>
<!-- 5&#45;setup&#45;integrations/1&#45;ssh&#45;keys&#45;gitops -->
<g id="node7" class="node">
<title>5&#45;setup&#45;integrations/1&#45;ssh&#45;keys&#45;gitops</title>
<ellipse fill="none" stroke="black" cx="556.31" cy="-234" rx="152.18" ry="18"/>
<text text-anchor="middle" x="556.31" y="-228.95" font-family="Times,serif" font-size="14.00">5&#45;setup&#45;integrations/1&#45;ssh&#45;keys&#45;gitops</text>
</g>
</g>
</svg>
