<?xml version="1.0" encoding="UTF-8" standalone="no"?>
<!DOCTYPE svg PUBLIC "-//W3C//DTD SVG 1.1//EN"
 "http://www.w3.org/Graphics/SVG/1.1/DTD/svg11.dtd">
<!-- Generated by graphviz version 8.0.5 (20230430.1635)
 -->
<!-- Pages: 1 -->
<svg width="726pt" height="332pt"
 viewBox="0.00 0.00 726.17 332.00" xmlns="http://www.w3.org/2000/svg" xmlns:xlink="http://www.w3.org/1999/xlink">
<g id="graph0" class="graph" transform="scale(1 1) rotate(0) translate(4 328)">
<polygon fill="white" stroke="none" points="-4,4 -4,-328 722.17,-328 722.17,4 -4,4"/>
<!-- 1&#45;setup&#45;network -->
<g id="node1" class="node">
<title>1&#45;setup&#45;network</title>
<ellipse fill="none" stroke="black" cx="71.31" cy="-306" rx="71.31" ry="18"/>
<text text-anchor="middle" x="71.31" y="-300.95" font-family="Times,serif" font-size="14.00">1&#45;setup&#45;network</text>
</g>
<!-- 2&#45;setup&#45;cloudflare -->
<g id="node2" class="node">
<title>2&#45;setup&#45;cloudflare</title>
<ellipse fill="none" stroke="black" cx="212.31" cy="-18" rx="78.48" ry="18"/>
<text text-anchor="middle" x="212.31" y="-12.95" font-family="Times,serif" font-size="14.00">2&#45;setup&#45;cloudflare</text>
</g>
<!-- 3&#45;setup&#45;kubernetes/1&#45;cluster -->
<g id="node3" class="node">
<title>3&#45;setup&#45;kubernetes/1&#45;cluster</title>
<ellipse fill="none" stroke="black" cx="300.31" cy="-90" rx="115.84" ry="18"/>
<text text-anchor="middle" x="300.31" y="-84.95" font-family="Times,serif" font-size="14.00">3&#45;setup&#45;kubernetes/1&#45;cluster</text>
</g>
<!-- 3&#45;setup&#45;kubernetes/1&#45;cluster&#45;&gt;2&#45;setup&#45;cloudflare -->
<g id="edge1" class="edge">
<title>3&#45;setup&#45;kubernetes/1&#45;cluster&#45;&gt;2&#45;setup&#45;cloudflare</title>
<path fill="none" stroke="black" d="M279.01,-72.05C267.88,-63.2 254.07,-52.22 241.92,-42.55"/>
<polygon fill="black" stroke="black" points="244.42,-39.28 234.42,-35.79 240.07,-44.75 244.42,-39.28"/>
</g>
<!-- 3&#45;setup&#45;kubernetes/2&#45;external&#45;secrets -->
<g id="node4" class="node">
<title>3&#45;setup&#45;kubernetes/2&#45;external&#45;secrets</title>
<ellipse fill="none" stroke="black" cx="317.31" cy="-162" rx="149.11" ry="18"/>
<text text-anchor="middle" x="317.31" y="-156.95" font-family="Times,serif" font-size="14.00">3&#45;setup&#45;kubernetes/2&#45;external&#45;secrets</text>
</g>
<!-- 3&#45;setup&#45;kubernetes/2&#45;external&#45;secrets&#45;&gt;3&#45;setup&#45;kubernetes/1&#45;cluster -->
<g id="edge2" class="edge">
<title>3&#45;setup&#45;kubernetes/2&#45;external&#45;secrets&#45;&gt;3&#45;setup&#45;kubernetes/1&#45;cluster</title>
<path fill="none" stroke="black" d="M313.11,-143.7C311.28,-136.15 309.08,-127.12 307.03,-118.68"/>
<polygon fill="black" stroke="black" points="310.23,-118 304.47,-109.1 303.42,-119.65 310.23,-118"/>
</g>
<!-- 4&#45;setup&#45;instances/1&#45;ssh&#45;keys -->
<g id="node5" class="node">
<title>4&#45;setup&#45;instances/1&#45;ssh&#45;keys</title>
<ellipse fill="none" stroke="black" cx="601.31" cy="-162" rx="116.86" ry="18"/>
<text text-anchor="middle" x="601.31" y="-156.95" font-family="Times,serif" font-size="14.00">4&#45;setup&#45;instances/1&#45;ssh&#45;keys</text>
</g>
<!-- 4&#45;setup&#45;instances/2&#45;rancher -->
<g id="node6" class="node">
<title>4&#45;setup&#45;instances/2&#45;rancher</title>
<ellipse fill="none" stroke="black" cx="317.31" cy="-234" rx="112.77" ry="18"/>
<text text-anchor="middle" x="317.31" y="-228.95" font-family="Times,serif" font-size="14.00">4&#45;setup&#45;instances/2&#45;rancher</text>
</g>
<!-- 4&#45;setup&#45;instances/2&#45;rancher&#45;&gt;2&#45;setup&#45;cloudflare -->
<g id="edge4" class="edge">
<title>4&#45;setup&#45;instances/2&#45;rancher&#45;&gt;2&#45;setup&#45;cloudflare</title>
<path fill="none" stroke="black" d="M227.07,-222.83C200.99,-215.23 175.28,-202.2 159.31,-180 129.18,-138.12 165.19,-78.08 190.87,-44.41"/>
<polygon fill="black" stroke="black" points="194.01,-47.07 197.45,-37.04 188.51,-42.74 194.01,-47.07"/>
</g>
<!-- 4&#45;setup&#45;instances/2&#45;rancher&#45;&gt;3&#45;setup&#45;kubernetes/2&#45;external&#45;secrets -->
<g id="edge5" class="edge">
<title>4&#45;setup&#45;instances/2&#45;rancher&#45;&gt;3&#45;setup&#45;kubernetes/2&#45;external&#45;secrets</title>
<path fill="none" stroke="black" d="M317.31,-215.7C317.31,-208.24 317.31,-199.32 317.31,-190.97"/>
<polygon fill="black" stroke="black" points="320.81,-191.1 317.31,-181.1 313.81,-191.1 320.81,-191.1"/>
</g>
<!-- 4&#45;setup&#45;instances/2&#45;rancher&#45;&gt;4&#45;setup&#45;instances/1&#45;ssh&#45;keys -->
<g id="edge3" class="edge">
<title>4&#45;setup&#45;instances/2&#45;rancher&#45;&gt;4&#45;setup&#45;instances/1&#45;ssh&#45;keys</title>
<path fill="none" stroke="black" d="M376.85,-218.33C421.76,-207.26 483.51,-192.04 530.88,-180.36"/>
<polygon fill="black" stroke="black" points="531.49,-183.57 540.37,-177.78 529.82,-176.77 531.49,-183.57"/>
</g>
<!-- 4&#45;setup&#45;instances/3&#45;rancher&#45;add&#45;cluster -->
<g id="node7" class="node">
<title>4&#45;setup&#45;instances/3&#45;rancher&#45;add&#45;cluster</title>
<ellipse fill="none" stroke="black" cx="317.31" cy="-306" rx="156.78" ry="18"/>
<text text-anchor="middle" x="317.31" y="-300.95" font-family="Times,serif" font-size="14.00">4&#45;setup&#45;instances/3&#45;rancher&#45;add&#45;cluster</text>
</g>
<!-- 4&#45;setup&#45;instances/3&#45;rancher&#45;add&#45;cluster&#45;&gt;4&#45;setup&#45;instances/2&#45;rancher -->
<g id="edge6" class="edge">
<title>4&#45;setup&#45;instances/3&#45;rancher&#45;add&#45;cluster&#45;&gt;4&#45;setup&#45;instances/2&#45;rancher</title>
<path fill="none" stroke="black" d="M317.31,-287.7C317.31,-280.24 317.31,-271.32 317.31,-262.97"/>
<polygon fill="black" stroke="black" points="320.81,-263.1 317.31,-253.1 313.81,-263.1 320.81,-263.1"/>
</g>
</g>
</svg>
