<?xml version="1.0" encoding="UTF-8" standalone="no"?>
<!DOCTYPE svg PUBLIC "-//W3C//DTD SVG 1.1//EN"
 "http://www.w3.org/Graphics/SVG/1.1/DTD/svg11.dtd">
<!-- Generated by graphviz version 8.0.5 (20230430.1635)
 -->
<!-- Pages: 1 -->
<svg width="1032pt" height="188pt"
 viewBox="0.00 0.00 1032.49 188.00" xmlns="http://www.w3.org/2000/svg" xmlns:xlink="http://www.w3.org/1999/xlink">
<g id="graph0" class="graph" transform="scale(1 1) rotate(0) translate(4 184)">
<polygon fill="white" stroke="none" points="-4,4 -4,-184 1028.49,-184 1028.49,4 -4,4"/>
<!-- 1&#45;setup&#45;network -->
<g id="node1" class="node">
<title>1&#45;setup&#45;network</title>
<ellipse fill="none" stroke="black" cx="71.31" cy="-162" rx="71.31" ry="18"/>
<text text-anchor="middle" x="71.31" y="-156.95" font-family="Times,serif" font-size="14.00">1&#45;setup&#45;network</text>
</g>
<!-- 2&#45;setup&#45;cloudflare -->
<g id="node2" class="node">
<title>2&#45;setup&#45;cloudflare</title>
<ellipse fill="none" stroke="black" cx="449.31" cy="-18" rx="78.48" ry="18"/>
<text text-anchor="middle" x="449.31" y="-12.95" font-family="Times,serif" font-size="14.00">2&#45;setup&#45;cloudflare</text>
</g>
<!-- 3&#45;setup&#45;kubernetes/1&#45;cluster -->
<g id="node3" class="node">
<title>3&#45;setup&#45;kubernetes/1&#45;cluster</title>
<ellipse fill="none" stroke="black" cx="377.31" cy="-90" rx="115.84" ry="18"/>
<text text-anchor="middle" x="377.31" y="-84.95" font-family="Times,serif" font-size="14.00">3&#45;setup&#45;kubernetes/1&#45;cluster</text>
</g>
<!-- 3&#45;setup&#45;kubernetes/1&#45;cluster&#45;&gt;2&#45;setup&#45;cloudflare -->
<g id="edge1" class="edge">
<title>3&#45;setup&#45;kubernetes/1&#45;cluster&#45;&gt;2&#45;setup&#45;cloudflare</title>
<path fill="none" stroke="black" d="M394.74,-72.05C403.52,-63.52 414.33,-53.01 424,-43.61"/>
<polygon fill="black" stroke="black" points="426.06,-46.51 430.79,-37.03 421.18,-41.49 426.06,-46.51"/>
</g>
<!-- 3&#45;setup&#45;kubernetes/2&#45;external&#45;secrets -->
<g id="node4" class="node">
<title>3&#45;setup&#45;kubernetes/2&#45;external&#45;secrets</title>
<ellipse fill="none" stroke="black" cx="309.31" cy="-162" rx="149.11" ry="18"/>
<text text-anchor="middle" x="309.31" y="-156.95" font-family="Times,serif" font-size="14.00">3&#45;setup&#45;kubernetes/2&#45;external&#45;secrets</text>
</g>
<!-- 3&#45;setup&#45;kubernetes/2&#45;external&#45;secrets&#45;&gt;3&#45;setup&#45;kubernetes/1&#45;cluster -->
<g id="edge2" class="edge">
<title>3&#45;setup&#45;kubernetes/2&#45;external&#45;secrets&#45;&gt;3&#45;setup&#45;kubernetes/1&#45;cluster</title>
<path fill="none" stroke="black" d="M326.12,-143.7C334.27,-135.3 344.21,-125.07 353.16,-115.86"/>
<polygon fill="black" stroke="black" points="355.24,-118.72 359.7,-109.1 350.22,-113.84 355.24,-118.72"/>
</g>
<!-- 4&#45;setup&#45;instances/1&#45;ssh&#45;keys -->
<g id="node5" class="node">
<title>4&#45;setup&#45;instances/1&#45;ssh&#45;keys</title>
<ellipse fill="none" stroke="black" cx="666.31" cy="-90" rx="116.86" ry="18"/>
<text text-anchor="middle" x="666.31" y="-84.95" font-family="Times,serif" font-size="14.00">4&#45;setup&#45;instances/1&#45;ssh&#45;keys</text>
</g>
<!-- 4&#45;setup&#45;instances/2&#45;rancher -->
<g id="node6" class="node">
<title>4&#45;setup&#45;instances/2&#45;rancher</title>
<ellipse fill="none" stroke="black" cx="589.31" cy="-162" rx="112.77" ry="18"/>
<text text-anchor="middle" x="589.31" y="-156.95" font-family="Times,serif" font-size="14.00">4&#45;setup&#45;instances/2&#45;rancher</text>
</g>
<!-- 4&#45;setup&#45;instances/2&#45;rancher&#45;&gt;2&#45;setup&#45;cloudflare -->
<g id="edge4" class="edge">
<title>4&#45;setup&#45;instances/2&#45;rancher&#45;&gt;2&#45;setup&#45;cloudflare</title>
<path fill="none" stroke="black" d="M572.69,-143.88C555.22,-125.92 526.92,-96.89 502.31,-72 492.97,-62.55 482.65,-52.21 473.62,-43.19"/>
<polygon fill="black" stroke="black" points="476.62,-41.25 467.07,-36.66 471.68,-46.2 476.62,-41.25"/>
</g>
<!-- 4&#45;setup&#45;instances/2&#45;rancher&#45;&gt;3&#45;setup&#45;kubernetes/1&#45;cluster -->
<g id="edge5" class="edge">
<title>4&#45;setup&#45;instances/2&#45;rancher&#45;&gt;3&#45;setup&#45;kubernetes/1&#45;cluster</title>
<path fill="none" stroke="black" d="M541.73,-145.29C510.2,-134.88 468.64,-121.16 435.2,-110.11"/>
<polygon fill="black" stroke="black" points="436.69,-106.59 426.1,-106.78 434.49,-113.24 436.69,-106.59"/>
</g>
<!-- 4&#45;setup&#45;instances/2&#45;rancher&#45;&gt;4&#45;setup&#45;instances/1&#45;ssh&#45;keys -->
<g id="edge3" class="edge">
<title>4&#45;setup&#45;instances/2&#45;rancher&#45;&gt;4&#45;setup&#45;instances/1&#45;ssh&#45;keys</title>
<path fill="none" stroke="black" d="M607.95,-144.05C617.43,-135.43 629.13,-124.8 639.56,-115.32"/>
<polygon fill="black" stroke="black" points="641.53,-118.35 646.58,-109.03 636.82,-113.17 641.53,-118.35"/>
</g>
<!-- 5&#45;setup&#45;integrations/1&#45;ssh&#45;keys&#45;gitops -->
<g id="node7" class="node">
<title>5&#45;setup&#45;integrations/1&#45;ssh&#45;keys&#45;gitops</title>
<ellipse fill="none" stroke="black" cx="872.31" cy="-162" rx="152.18" ry="18"/>
<text text-anchor="middle" x="872.31" y="-156.95" font-family="Times,serif" font-size="14.00">5&#45;setup&#45;integrations/1&#45;ssh&#45;keys&#45;gitops</text>
</g>
</g>
</svg>
